<svg width="246" height="246" viewBox="0 0 246 246"><circle cx="123" cy="123" r="120.53999999999999" fill="#c6c6c6" stroke="#9ca3af" stroke-width="1.23"></circle><circle cx="123" cy="123" r="108.24" fill="#ffffff" stroke="#111827" stroke-width="1.845"></circle><g font-family="system-ui, sans-serif" font-size="14.76" fill="#111827" text-anchor="middle" font-weight="700"><text x="123" y="29.519999999999996">N</text><text x="221.4" y="127.92">E</text><text x="123.00000000000001" y="226.32">S</text><text x="24.599999999999994" y="127.92000000000002">W</text></g><line x1="136.80706061303707" y1="18.12496256387834" x2="135.84377731445306" y2="25.441825640817058" stroke="#111827" stroke-width="1.23"></line><line x1="150.37787859094465" y1="20.824366095142352" x2="148.46779403808804" y2="27.952898693155674" stroke="#111827" stroke-width="1.23"></line><line x1="163.4802534755792" y1="25.272023050956093" x2="160.65604974472484" y2="32.090254000889374" stroke="#111827" stroke-width="1.23"></line><line x1="175.89" y1="31.391832787682077" x2="172.2" y2="37.78310026761123" stroke="#111827" stroke-width="1.23"></line><line x1="187.39478396054247" y1="39.079083663993146" x2="182.9021246144581" y2="44.93403131534245" stroke="#111827" stroke-width="1.23"></line><line x1="197.797755313913" y1="48.202244686087" x2="192.57930726875628" y2="53.42069273124372" stroke="#111827" stroke-width="1.23"></line><line x1="206.92091633600685" y1="58.60521603945753" x2="201.06596868465755" y2="63.09787538554188" stroke="#111827" stroke-width="1.23"></line><line x1="214.6081672123179" y1="70.10999999999999" x2="208.21689973238875" y2="73.79999999999998" stroke="#111827" stroke-width="1.23"></line><line x1="220.72797694904392" y1="82.5197465244208" x2="213.9097459991106" y2="85.34395025527516" stroke="#111827" stroke-width="1.23"></line><line x1="225.17563390485765" y1="95.62212140905535" x2="218.04710130684433" y2="97.53220596191196" stroke="#111827" stroke-width="1.23"></line><line x1="227.87503743612166" y1="109.19293938696293" x2="220.55817435918294" y2="110.15622268554691" stroke="#111827" stroke-width="1.23"></line><line x1="227.87503743612166" y1="136.80706061303704" x2="220.55817435918294" y2="135.84377731445306" stroke="#111827" stroke-width="1.23"></line><line x1="225.17563390485765" y1="150.37787859094465" x2="218.04710130684433" y2="148.46779403808804" stroke="#111827" stroke-width="1.23"></line><line x1="220.72797694904392" y1="163.4802534755792" x2="213.9097459991106" y2="160.65604974472484" stroke="#111827" stroke-width="1.23"></line><line x1="214.60816721231794" y1="175.89" x2="208.21689973238875" y2="172.2" stroke="#111827" stroke-width="1.23"></line><line x1="206.92091633600685" y1="187.39478396054247" x2="201.06596868465755" y2="182.9021246144581" stroke="#111827" stroke-width="1.23"></line><line x1="197.797755313913" y1="197.797755313913" x2="192.57930726875628" y2="192.57930726875628" stroke="#111827" stroke-width="1.23"></line><line x1="187.39478396054244" y1="206.92091633600688" x2="182.9021246144581" y2="201.06596868465755" stroke="#111827" stroke-width="1.23"></line><line x1="175.89" y1="214.60816721231794" x2="172.2" y2="208.21689973238875" stroke="#111827" stroke-width="1.23"></line><line x1="163.48025347557922" y1="220.72797694904392" x2="160.65604974472484" y2="213.9097459991106" stroke="#111827" stroke-width="1.23"></line><line x1="150.37787859094468" y1="225.17563390485765" x2="148.46779403808807" y2="218.0471013068443" stroke="#111827" stroke-width="1.23"></line><line x1="136.80706061303707" y1="227.87503743612166" x2="135.84377731445306" y2="220.55817435918294" stroke="#111827" stroke-width="1.23"></line><line x1="109.19293938696298" y1="227.87503743612166" x2="110.15622268554695" y2="220.55817435918294" stroke="#111827" stroke-width="1.23"></line><line x1="95.6221214090554" y1="225.17563390485765" x2="97.532205961912" y2="218.04710130684435" stroke="#111827" stroke-width="1.23"></line><line x1="82.51974652442087" y1="220.72797694904392" x2="85.34395025527522" y2="213.90974599911064" stroke="#111827" stroke-width="1.23"></line><line x1="70.10999999999999" y1="214.6081672123179" x2="73.79999999999998" y2="208.21689973238875" stroke="#111827" stroke-width="1.23"></line><line x1="58.60521603945753" y1="206.92091633600685" x2="63.09787538554188" y2="201.06596868465755" stroke="#111827" stroke-width="1.23"></line><line x1="48.20224468608701" y1="197.797755313913" x2="53.42069273124372" y2="192.57930726875628" stroke="#111827" stroke-width="1.23"></line><line x1="39.07908366399316" y1="187.3947839605425" x2="44.93403131534248" y2="182.90212461445813" stroke="#111827" stroke-width="1.23"></line><line x1="31.39183278768209" y1="175.89000000000004" x2="37.783100267611246" y2="172.20000000000005" stroke="#111827" stroke-width="1.23"></line><line x1="25.27202305095608" y1="163.48025347557916" x2="32.090254000889374" y2="160.6560497447248" stroke="#111827" stroke-width="1.23"></line><line x1="20.824366095142352" y1="150.37787859094465" x2="27.952898693155674" y2="148.46779403808802" stroke="#111827" stroke-width="1.23"></line><line x1="18.12496256387834" y1="136.80706061303707" x2="25.441825640817058" y2="135.8437773144531" stroke="#111827" stroke-width="1.23"></line><line x1="18.12496256387834" y1="109.19293938696289" x2="25.441825640817058" y2="110.15622268554687" stroke="#111827" stroke-width="1.23"></line><line x1="20.824366095142366" y1="95.62212140905531" x2="27.95289869315569" y2="97.53220596191193" stroke="#111827" stroke-width="1.23"></line><line x1="25.272023050956093" y1="82.51974652442078" x2="32.09025400088939" y2="85.34395025527513" stroke="#111827" stroke-width="1.23"></line><line x1="31.39183278768209" y1="70.10999999999999" x2="37.78310026761123" y2="73.79999999999998" stroke="#111827" stroke-width="1.23"></line><line x1="39.079083663993146" y1="58.605216039457545" x2="44.93403131534245" y2="63.0978753855419" stroke="#111827" stroke-width="1.23"></line><line x1="48.202244686086985" y1="48.20224468608703" x2="53.420692731243705" y2="53.42069273124373" stroke="#111827" stroke-width="1.23"></line><line x1="58.6052160394575" y1="39.07908366399316" x2="63.09787538554186" y2="44.93403131534248" stroke="#111827" stroke-width="1.23"></line><line x1="70.10999999999996" y1="31.391832787682105" x2="73.79999999999995" y2="37.78310026761126" stroke="#111827" stroke-width="1.23"></line><line x1="82.51974652442082" y1="25.27202305095608" x2="85.34395025527519" y2="32.090254000889374" stroke="#111827" stroke-width="1.23"></line><line x1="95.62212140905535" y1="20.824366095142352" x2="97.53220596191196" y2="27.952898693155674" stroke="#111827" stroke-width="1.23"></line><line x1="109.19293938696293" y1="18.12496256387834" x2="110.15622268554691" y2="25.441825640817058" stroke="#111827" stroke-width="1.23"></line><line x1="197.797755313913" y1="48.202244686087" x2="185.62137654188064" y2="60.37862345811934" stroke="#111827" stroke-width="2.46"></line><line x1="197.797755313913" y1="197.797755313913" x2="185.62137654188066" y2="185.62137654188064" stroke="#111827" stroke-width="2.46"></line><line x1="48.20224468608701" y1="197.797755313913" x2="60.37862345811936" y2="185.62137654188066" stroke="#111827" stroke-width="2.46"></line><line x1="48.202244686086985" y1="48.20224468608703" x2="60.378623458119336" y2="60.378623458119364" stroke="#111827" stroke-width="2.46"></line><g transform="translate(123,123) rotate(30)" style="transition: transform 0.6s ease-in-out;"><g><polygon points="0,-86.1 7.38,0 0,-9.84 -7.38,0" fill="#F2495C"></polygon><polygon points="0,55.35 7.38,0 0,9.84 -7.38,0" fill="#808080"></polygon><circle cx="0" cy="0" r="6.15" fill="white" stroke="#111827" stroke-width="1.23"></circle></g></g><text x="123" y="202.95" font-family="system-ui, sans-serif" font-size="18.45" fill="#111827" text-anchor="middle" font-weight="600">30°</text></svg>